<?xml version="1.0" encoding="UTF-8" standalone="no"?>
<!DOCTYPE svg PUBLIC "-//W3C//DTD SVG 1.1//EN"
 "http://www.w3.org/Graphics/SVG/1.1/DTD/svg11.dtd">
<!-- Generated by graphviz version 2.40.1 (20161225.0304)
 -->
<!-- Title: DFA Pages: 1 -->
<svg width="250pt" height="339pt"
 viewBox="0.00 0.00 249.51 338.95" xmlns="http://www.w3.org/2000/svg" xmlns:xlink="http://www.w3.org/1999/xlink">
<g id="graph0" class="graph" transform="scale(1 1) rotate(0) translate(4 334.9533)">
<title>DFA</title>
<polygon fill="#ffffff" stroke="transparent" points="-4,4 -4,-334.9533 245.5066,-334.9533 245.5066,4 -4,4"/>
<text text-anchor="middle" x="120.7533" y="-7.8" font-family="Times,serif" font-size="14.00" fill="#000000">regex=a(a|b)*</text>
<!-- initial -->
<g id="node1" class="node">
<title>initial</title>
<ellipse fill="#000000" stroke="#000000" cx="1.8" cy="-141.4767" rx="1.8" ry="1.8"/>
</g>
<!-- s0 -->
<g id="node2" class="node">
<title>s0</title>
<ellipse fill="none" stroke="#000000" cx="78.0767" cy="-141.4767" rx="37.4533" ry="37.4533"/>
<text text-anchor="start" x="66.0767" y="-146.4767" font-family="Times,serif" font-size="14.00" fill="#000000"> &#160;</text>
<text text-anchor="start" x="74.0767" y="-146.4767" font-family="Times,serif" font-size="20.00" fill="#000000">s</text>
<text text-anchor="start" x="82.0767" y="-146.4767" font-family="Times,serif" baseline-shift="sub" font-size="20.00" fill="#000000">0</text>
<text text-anchor="start" x="68.5767" y="-125.2767" font-family="Times,serif" font-size="14.00" fill="#000000"> &#160;</text>
<text text-anchor="start" x="76.5767" y="-125.2767" font-family="Times,serif" font-size="8.00" fill="#000000">{0}</text>
</g>
<!-- initial&#45;&gt;s0 -->
<g id="edge1" class="edge">
<title>initial&#45;&gt;s0</title>
<path fill="none" stroke="#000000" d="M3.6855,-141.4767C7.8436,-141.4767 18.3804,-141.4767 30.2585,-141.4767"/>
<polygon fill="#000000" stroke="#000000" points="30.4412,-144.9768 40.4411,-141.4767 30.4411,-137.9768 30.4412,-144.9768"/>
</g>
<!-- s1 -->
<g id="node3" class="node">
<title>s1</title>
<ellipse fill="none" stroke="#000000" cx="200.03" cy="-223.4767" rx="37.4556" ry="37.4556"/>
<ellipse fill="none" stroke="#000000" cx="200.03" cy="-223.4767" rx="41.4533" ry="41.4533"/>
<text text-anchor="start" x="187.53" y="-228.4767" font-family="Times,serif" font-size="14.00" fill="#000000"> &#160;</text>
<text text-anchor="start" x="195.53" y="-228.4767" font-family="Times,serif" font-size="20.00" fill="#000000">s</text>
<text text-anchor="start" x="203.53" y="-228.4767" font-family="Times,serif" baseline-shift="sub" font-size="20.00" fill="#000000">1</text>
<text text-anchor="start" x="184.03" y="-207.2767" font-family="Times,serif" font-size="14.00" fill="#000000"> &#160;</text>
<text text-anchor="start" x="192.03" y="-207.2767" font-family="Times,serif" font-size="8.00" fill="#000000">{1,3,4}</text>
</g>
<!-- s0&#45;&gt;s1 -->
<g id="edge2" class="edge">
<title>s0&#45;&gt;s1</title>
<path fill="none" stroke="#000000" d="M109.4827,-162.5937C123.893,-172.283 141.2106,-183.9272 156.8247,-194.4259"/>
<polygon fill="#000000" stroke="#000000" points="155.0432,-197.4457 165.2947,-200.121 158.9491,-191.6367 155.0432,-197.4457"/>
<text text-anchor="middle" x="137.0533" y="-186.2767" font-family="Times,serif" font-size="14.00" fill="#000000">a</text>
</g>
<!-- s2 -->
<g id="node4" class="node">
<title>s2</title>
<ellipse fill="none" stroke="#000000" cx="200.03" cy="-60.4767" rx="37.4533" ry="37.4533"/>
<text text-anchor="start" x="188.03" y="-65.4767" font-family="Times,serif" font-size="14.00" fill="#000000"> &#160;</text>
<text text-anchor="start" x="196.03" y="-65.4767" font-family="Times,serif" font-size="20.00" fill="#000000">s</text>
<text text-anchor="start" x="204.03" y="-65.4767" font-family="Times,serif" baseline-shift="sub" font-size="20.00" fill="#000000">2</text>
<text text-anchor="start" x="190.53" y="-44.2767" font-family="Times,serif" font-size="14.00" fill="#000000"> &#160;</text>
<text text-anchor="start" x="198.53" y="-44.2767" font-family="Times,serif" font-size="8.00" fill="#000000">{2}</text>
</g>
<!-- s0&#45;&gt;s2 -->
<g id="edge3" class="edge">
<title>s0&#45;&gt;s2</title>
<path fill="none" stroke="#000000" d="M109.4827,-120.6171C124.988,-110.3187 143.8592,-97.7846 160.3526,-86.8299"/>
<polygon fill="#000000" stroke="#000000" points="162.3368,-89.7137 168.7304,-81.2655 158.4639,-83.8827 162.3368,-89.7137"/>
<text text-anchor="middle" x="137.0533" y="-106.2767" font-family="Times,serif" font-size="14.00" fill="#000000">b</text>
</g>
<!-- s1&#45;&gt;s1 -->
<g id="edge4" class="edge">
<title>s1&#45;&gt;s1</title>
<path fill="none" stroke="#000000" d="M194.287,-264.6167C194.6645,-275.0904 196.5788,-282.9533 200.03,-282.9533 202.2409,-282.9533 203.8211,-279.7264 204.7705,-274.6533"/>
<polygon fill="#000000" stroke="#000000" points="208.2617,-274.9151 205.7729,-264.6167 201.2964,-274.2193 208.2617,-274.9151"/>
<text text-anchor="middle" x="200.03" y="-286.7533" font-family="Times,serif" font-size="14.00" fill="#000000">a</text>
</g>
<!-- s1&#45;&gt;s1 -->
<g id="edge5" class="edge">
<title>s1&#45;&gt;s1</title>
<path fill="none" stroke="#000000" d="M188.7179,-263.7373C187.2378,-283.456 191.0085,-300.9533 200.03,-300.9533 207.4304,-300.9533 211.2975,-289.1791 211.6313,-274.0631"/>
<polygon fill="#000000" stroke="#000000" points="215.1208,-273.6353 211.3421,-263.7373 208.1236,-273.8314 215.1208,-273.6353"/>
<text text-anchor="middle" x="200.03" y="-304.7533" font-family="Times,serif" font-size="14.00" fill="#000000">b</text>
</g>
<!-- s2&#45;&gt;s2 -->
<g id="edge6" class="edge">
<title>s2&#45;&gt;s2</title>
<path fill="none" stroke="#000000" d="M194.2462,-97.5508C194.4995,-107.9617 196.4274,-115.9533 200.03,-115.9533 202.3379,-115.9533 203.9585,-112.6736 204.8918,-107.5791"/>
<polygon fill="#000000" stroke="#000000" points="208.3835,-107.8293 205.8137,-97.5508 201.4129,-107.1884 208.3835,-107.8293"/>
<text text-anchor="middle" x="200.03" y="-119.7533" font-family="Times,serif" font-size="14.00" fill="#000000">a</text>
</g>
<!-- s2&#45;&gt;s2 -->
<g id="edge7" class="edge">
<title>s2&#45;&gt;s2</title>
<path fill="none" stroke="#000000" d="M188.9222,-96.3902C186.9426,-115.996 190.6452,-133.9533 200.03,-133.9533 207.7284,-133.9533 211.6032,-121.8696 211.6545,-106.7047"/>
<polygon fill="#000000" stroke="#000000" points="215.1338,-106.2026 211.1377,-96.3902 208.1426,-106.5529 215.1338,-106.2026"/>
<text text-anchor="middle" x="200.03" y="-137.7533" font-family="Times,serif" font-size="14.00" fill="#000000">b</text>
</g>
</g>
</svg>
