<?xml version="1.0" encoding="UTF-8" standalone="no"?>
<!DOCTYPE svg PUBLIC "-//W3C//DTD SVG 1.1//EN"
 "http://www.w3.org/Graphics/SVG/1.1/DTD/svg11.dtd">
<!-- Generated by graphviz version 2.40.1 (20161225.0304)
 -->
<!-- Title: NFA Pages: 1 -->
<svg width="836pt" height="191pt"
 viewBox="0.00 0.00 836.17 190.85" xmlns="http://www.w3.org/2000/svg" xmlns:xlink="http://www.w3.org/1999/xlink">
<g id="graph0" class="graph" transform="scale(1 1) rotate(0) translate(4 186.8483)">
<title>NFA</title>
<polygon fill="#ffffff" stroke="transparent" points="-4,4 -4,-186.8483 832.1652,-186.8483 832.1652,4 -4,4"/>
<text text-anchor="middle" x="414.0826" y="-7.8" font-family="Times,serif" font-size="14.00" fill="#000000">regex = a(a|b)*</text>
<!-- initial -->
<g id="node1" class="node">
<title>initial</title>
<ellipse fill="#000000" stroke="#000000" cx="1.8" cy="-61" rx="1.8" ry="1.8"/>
</g>
<!-- s0 -->
<g id="node2" class="node">
<title>s0</title>
<ellipse fill="none" stroke="#000000" cx="59.4483" cy="-61" rx="18.6979" ry="18.6979"/>
<text text-anchor="middle" x="59.4483" y="-57.3" font-family="Times,serif" font-size="14.00" fill="#000000">s0</text>
</g>
<!-- initial&#45;&gt;s0 -->
<g id="edge1" class="edge">
<title>initial&#45;&gt;s0</title>
<path fill="none" stroke="#000000" d="M3.7181,-61C8.0858,-61 19.2647,-61 30.4739,-61"/>
<polygon fill="#000000" stroke="#000000" points="30.5821,-64.5001 40.5821,-61 30.582,-57.5001 30.5821,-64.5001"/>
</g>
<!-- s1 -->
<g id="node3" class="node">
<title>s1</title>
<ellipse fill="none" stroke="#000000" cx="140.145" cy="-61" rx="18.6979" ry="18.6979"/>
<text text-anchor="middle" x="140.145" y="-57.3" font-family="Times,serif" font-size="14.00" fill="#000000">s1</text>
</g>
<!-- s0&#45;&gt;s1 -->
<g id="edge2" class="edge">
<title>s0&#45;&gt;s1</title>
<path fill="none" stroke="#000000" d="M78.5723,-61C88.2201,-61 100.1311,-61 110.8984,-61"/>
<polygon fill="#000000" stroke="#000000" points="111.1583,-64.5001 121.1583,-61 111.1582,-57.5001 111.1583,-64.5001"/>
<text text-anchor="start" x="96.2967" y="-64.8" font-family="Times,serif" font-size="14.00" fill="#000000">ε</text>
</g>
<!-- s2 -->
<g id="node4" class="node">
<title>s2</title>
<ellipse fill="none" stroke="#000000" cx="220.8416" cy="-61" rx="18.6979" ry="18.6979"/>
<text text-anchor="middle" x="220.8416" y="-57.3" font-family="Times,serif" font-size="14.00" fill="#000000">s2</text>
</g>
<!-- s1&#45;&gt;s2 -->
<g id="edge3" class="edge">
<title>s1&#45;&gt;s2</title>
<path fill="none" stroke="#000000" d="M159.269,-61C168.9167,-61 180.8278,-61 191.5951,-61"/>
<polygon fill="#000000" stroke="#000000" points="191.855,-64.5001 201.8549,-61 191.8549,-57.5001 191.855,-64.5001"/>
<text text-anchor="middle" x="180.4933" y="-64.8" font-family="Times,serif" font-size="14.00" fill="#000000">a</text>
</g>
<!-- s3 -->
<g id="node5" class="node">
<title>s3</title>
<ellipse fill="none" stroke="#000000" cx="301.5383" cy="-61" rx="18.6979" ry="18.6979"/>
<text text-anchor="middle" x="301.5383" y="-57.3" font-family="Times,serif" font-size="14.00" fill="#000000">s3</text>
</g>
<!-- s2&#45;&gt;s3 -->
<g id="edge4" class="edge">
<title>s2&#45;&gt;s3</title>
<path fill="none" stroke="#000000" d="M239.9656,-61C249.6134,-61 261.5245,-61 272.2917,-61"/>
<polygon fill="#000000" stroke="#000000" points="272.5516,-64.5001 282.5516,-61 272.5516,-57.5001 272.5516,-64.5001"/>
<text text-anchor="start" x="257.69" y="-64.8" font-family="Times,serif" font-size="14.00" fill="#000000">ε</text>
</g>
<!-- s4 -->
<g id="node6" class="node">
<title>s4</title>
<ellipse fill="none" stroke="#000000" cx="382.2349" cy="-108" rx="18.6979" ry="18.6979"/>
<text text-anchor="middle" x="382.2349" y="-104.3" font-family="Times,serif" font-size="14.00" fill="#000000">s4</text>
</g>
<!-- s3&#45;&gt;s4 -->
<g id="edge5" class="edge">
<title>s3&#45;&gt;s4</title>
<path fill="none" stroke="#000000" d="M317.8685,-70.5112C329.1345,-77.0728 344.3285,-85.9222 357.1252,-93.3754"/>
<polygon fill="#000000" stroke="#000000" points="355.5263,-96.4945 365.9291,-98.503 359.0494,-90.4457 355.5263,-96.4945"/>
<text text-anchor="start" x="338.3866" y="-89.8" font-family="Times,serif" font-size="14.00" fill="#000000">ε</text>
</g>
<!-- s10 -->
<g id="node12" class="node">
<title>s10</title>
<ellipse fill="none" stroke="#000000" cx="708.9212" cy="-61" rx="22.9987" ry="22.9987"/>
<text text-anchor="middle" x="708.9212" y="-57.3" font-family="Times,serif" font-size="14.00" fill="#000000">s10</text>
</g>
<!-- s3&#45;&gt;s10 -->
<g id="edge6" class="edge">
<title>s3&#45;&gt;s10</title>
<path fill="none" stroke="#000000" d="M320.452,-61C336.8057,-61 361.0801,-61 382.2349,-61 382.2349,-61 382.2349,-61 624.3249,-61 641.2699,-61 660.124,-61 675.7247,-61"/>
<polygon fill="#000000" stroke="#000000" points="675.942,-64.5001 685.942,-61 675.9419,-57.5001 675.942,-64.5001"/>
<text text-anchor="start" x="499.7799" y="-64.8" font-family="Times,serif" font-size="14.00" fill="#000000">ε</text>
</g>
<!-- s5 -->
<g id="node7" class="node">
<title>s5</title>
<ellipse fill="none" stroke="#000000" cx="462.9316" cy="-164" rx="18.6979" ry="18.6979"/>
<text text-anchor="middle" x="462.9316" y="-160.3" font-family="Times,serif" font-size="14.00" fill="#000000">s5</text>
</g>
<!-- s4&#45;&gt;s5 -->
<g id="edge8" class="edge">
<title>s4&#45;&gt;s5</title>
<path fill="none" stroke="#000000" d="M397.7941,-118.7974C409.516,-126.9319 425.7953,-138.229 439.1466,-147.4943"/>
<polygon fill="#000000" stroke="#000000" points="437.2092,-150.4099 447.4202,-153.2358 441.2001,-144.659 437.2092,-150.4099"/>
<text text-anchor="start" x="419.0833" y="-140.8" font-family="Times,serif" font-size="14.00" fill="#000000">ε</text>
</g>
<!-- s7 -->
<g id="node9" class="node">
<title>s7</title>
<ellipse fill="none" stroke="#000000" cx="462.9316" cy="-108" rx="18.6979" ry="18.6979"/>
<text text-anchor="middle" x="462.9316" y="-104.3" font-family="Times,serif" font-size="14.00" fill="#000000">s7</text>
</g>
<!-- s4&#45;&gt;s7 -->
<g id="edge7" class="edge">
<title>s4&#45;&gt;s7</title>
<path fill="none" stroke="#000000" d="M401.3589,-108C411.0067,-108 422.9178,-108 433.6851,-108"/>
<polygon fill="#000000" stroke="#000000" points="433.9449,-111.5001 443.9449,-108 433.9449,-104.5001 433.9449,-111.5001"/>
<text text-anchor="start" x="419.0833" y="-111.8" font-family="Times,serif" font-size="14.00" fill="#000000">ε</text>
</g>
<!-- s6 -->
<g id="node8" class="node">
<title>s6</title>
<ellipse fill="none" stroke="#000000" cx="543.6283" cy="-164" rx="18.6979" ry="18.6979"/>
<text text-anchor="middle" x="543.6283" y="-160.3" font-family="Times,serif" font-size="14.00" fill="#000000">s6</text>
</g>
<!-- s5&#45;&gt;s6 -->
<g id="edge9" class="edge">
<title>s5&#45;&gt;s6</title>
<path fill="none" stroke="#000000" d="M482.0556,-164C491.7034,-164 503.6144,-164 514.3817,-164"/>
<polygon fill="#000000" stroke="#000000" points="514.6416,-167.5001 524.6416,-164 514.6415,-160.5001 514.6416,-167.5001"/>
<text text-anchor="middle" x="503.2799" y="-167.8" font-family="Times,serif" font-size="14.00" fill="#000000">a</text>
</g>
<!-- s9 -->
<g id="node11" class="node">
<title>s9</title>
<ellipse fill="none" stroke="#000000" cx="624.3249" cy="-108" rx="18.6979" ry="18.6979"/>
<text text-anchor="middle" x="624.3249" y="-104.3" font-family="Times,serif" font-size="14.00" fill="#000000">s9</text>
</g>
<!-- s6&#45;&gt;s9 -->
<g id="edge10" class="edge">
<title>s6&#45;&gt;s9</title>
<path fill="none" stroke="#000000" d="M559.1874,-153.2026C570.9093,-145.0681 587.1886,-133.771 600.5399,-124.5057"/>
<polygon fill="#000000" stroke="#000000" points="602.5934,-127.341 608.8136,-118.7642 598.6025,-121.5901 602.5934,-127.341"/>
<text text-anchor="start" x="580.4766" y="-140.8" font-family="Times,serif" font-size="14.00" fill="#000000">ε</text>
</g>
<!-- s8 -->
<g id="node10" class="node">
<title>s8</title>
<ellipse fill="none" stroke="#000000" cx="543.6283" cy="-108" rx="18.6979" ry="18.6979"/>
<text text-anchor="middle" x="543.6283" y="-104.3" font-family="Times,serif" font-size="14.00" fill="#000000">s8</text>
</g>
<!-- s7&#45;&gt;s8 -->
<g id="edge11" class="edge">
<title>s7&#45;&gt;s8</title>
<path fill="none" stroke="#000000" d="M482.0556,-108C491.7034,-108 503.6144,-108 514.3817,-108"/>
<polygon fill="#000000" stroke="#000000" points="514.6416,-111.5001 524.6416,-108 514.6415,-104.5001 514.6416,-111.5001"/>
<text text-anchor="middle" x="503.2799" y="-111.8" font-family="Times,serif" font-size="14.00" fill="#000000">b</text>
</g>
<!-- s8&#45;&gt;s9 -->
<g id="edge12" class="edge">
<title>s8&#45;&gt;s9</title>
<path fill="none" stroke="#000000" d="M562.7522,-108C572.4,-108 584.3111,-108 595.0784,-108"/>
<polygon fill="#000000" stroke="#000000" points="595.3382,-111.5001 605.3382,-108 595.3382,-104.5001 595.3382,-111.5001"/>
<text text-anchor="start" x="580.4766" y="-111.8" font-family="Times,serif" font-size="14.00" fill="#000000">ε</text>
</g>
<!-- s9&#45;&gt;s10 -->
<g id="edge13" class="edge">
<title>s9&#45;&gt;s10</title>
<path fill="none" stroke="#000000" d="M641.0384,-98.7143C652.1202,-92.5575 666.955,-84.3156 679.9298,-77.1071"/>
<polygon fill="#000000" stroke="#000000" points="681.9268,-80.0015 688.9685,-72.0853 678.5272,-73.8825 681.9268,-80.0015"/>
<text text-anchor="start" x="661.1732" y="-91.8" font-family="Times,serif" font-size="14.00" fill="#000000">ε</text>
</g>
<!-- s10&#45;&gt;s3 -->
<g id="edge15" class="edge">
<title>s10&#45;&gt;s3</title>
<path fill="none" stroke="#000000" d="M690.4969,-47.2811C674.0326,-36.3965 648.7977,-23 624.3249,-23 382.2349,-23 382.2349,-23 382.2349,-23 361.3937,-23 340.1625,-33.5028 324.7115,-43.4651"/>
<polygon fill="#000000" stroke="#000000" points="322.6165,-40.6575 316.3289,-49.1849 326.5619,-46.4397 322.6165,-40.6575"/>
<text text-anchor="start" x="499.7799" y="-26.8" font-family="Times,serif" font-size="14.00" fill="#000000">ε</text>
</g>
<!-- s11 -->
<g id="node13" class="node">
<title>s11</title>
<ellipse fill="none" stroke="#000000" cx="801.4172" cy="-61" rx="22.9609" ry="22.9609"/>
<ellipse fill="none" stroke="#000000" cx="801.4172" cy="-61" rx="26.9983" ry="26.9983"/>
<text text-anchor="middle" x="801.4172" y="-57.3" font-family="Times,serif" font-size="14.00" fill="#000000">s11</text>
</g>
<!-- s10&#45;&gt;s11 -->
<g id="edge14" class="edge">
<title>s10&#45;&gt;s11</title>
<path fill="none" stroke="#000000" d="M731.7854,-61C741.5963,-61 753.3125,-61 764.3104,-61"/>
<polygon fill="#000000" stroke="#000000" points="764.549,-64.5001 774.549,-61 764.549,-57.5001 764.549,-64.5001"/>
<text text-anchor="start" x="749.6692" y="-64.8" font-family="Times,serif" font-size="14.00" fill="#000000">ε</text>
</g>
</g>
</svg>
